<svg width="38" height="51" viewBox="0 0 38 51" fill="none" xmlns="http://www.w3.org/2000/svg">
<path d="M27.9843 21.9177C26.279 21.9177 24.7521 21.5013 23.4037 20.6685C22.0553 19.8158 20.9944 18.5864 20.2211 16.9802C19.4477 15.374 19.061 13.4307 19.061 11.1503C19.061 8.86988 19.4477 6.92658 20.2211 5.32038C20.9944 3.71418 22.0553 2.49466 23.4037 1.66182C24.7521 0.809149 26.279 0.382812 27.9843 0.382812C29.7095 0.382812 31.2364 0.809149 32.565 1.66182C33.9134 2.49466 34.9743 3.71418 35.7476 5.32038C36.521 6.92658 36.9077 8.86988 36.9077 11.1503C36.9077 13.4307 36.521 15.374 35.7476 16.9802C34.9743 18.5864 33.9134 19.8158 32.565 20.6685C31.2364 21.5013 29.7095 21.9177 27.9843 21.9177ZM27.9843 17.8428C28.7974 17.8428 29.5013 17.6147 30.0962 17.1586C30.7109 16.7026 31.1868 15.9788 31.5239 14.9873C31.8809 13.9958 32.0593 12.7168 32.0593 11.1503C32.0593 9.58374 31.8809 8.30473 31.5239 7.31325C31.1868 6.32177 30.7109 5.59799 30.0962 5.14191C29.5013 4.68583 28.7974 4.45779 27.9843 4.45779C27.1912 4.45779 26.4872 4.68583 25.8725 5.14191C25.2776 5.59799 24.8017 6.32177 24.4448 7.31325C24.1077 8.30473 23.9391 9.58374 23.9391 11.1503C23.9391 12.7168 24.1077 13.9958 24.4448 14.9873C24.8017 15.9788 25.2776 16.7026 25.8725 17.1586C26.4872 17.6147 27.1912 17.8428 27.9843 17.8428Z" fill="white"/>
<path d="M8.2103 21.9177C6.76274 21.9177 5.3251 21.7294 3.89737 21.3526C2.46964 20.956 1.26003 20.4008 0.268555 19.6869L2.14245 15.9986C2.93563 16.5737 3.85771 17.0298 4.90868 17.3669C5.95965 17.704 7.02053 17.8725 8.09133 17.8725C9.30093 17.8725 10.2528 17.6346 10.9468 17.1586C11.6408 16.6827 11.9878 16.0284 11.9878 15.1955C11.9878 14.4023 11.6805 13.7777 11.0658 13.3216C10.451 12.8655 9.45957 12.6375 8.09133 12.6375H5.89024V9.45485L11.6904 2.88134L12.2258 4.60652H1.30961V0.739746H15.8844V3.86291L10.1139 10.4364L7.67491 9.03843H9.07289C11.6309 9.03843 13.5643 9.61349 14.873 10.7636C16.1818 11.9137 16.8362 13.391 16.8362 15.1955C16.8362 16.3655 16.5288 17.466 15.9141 18.4971C15.2994 19.5085 14.3575 20.3314 13.0884 20.9659C11.8193 21.6005 10.1933 21.9177 8.2103 21.9177Z" fill="white"/>
<path d="M23.2415 50.0659V29.2449H37.9352L37.9054 33.1711H26.9L28.0006 32.0706L28.0303 50.0659H23.2415Z" fill="white"/>
<path d="M15.5112 50.0659L9.02696 40.0421L12.9235 37.6923L20.9842 50.0659H15.5112ZM1.97754 50.0659V29.2449H6.76639V50.0659H1.97754ZM5.3684 41.678V37.6625H12.626V41.678H5.3684ZM13.3696 40.1908L8.93772 39.6554L15.6897 29.2449H20.776L13.3696 40.1908Z" fill="white"/>
</svg>
