<svg width="50" height="51" viewBox="0 0 50 51" fill="none" xmlns="http://www.w3.org/2000/svg">
<path d="M15.1162 1.19897H35.5282V21.4252L44.8296 22.1688L45.6785 42.5685H4.22847L3.72034 22.1688L15.1162 21.4252V1.19897Z" fill="white"/>
<path d="M13.6599 21.45C13.6599 21.1959 13.6599 21.0162 13.6599 20.8427C13.6599 14.4663 13.6599 8.08981 13.6599 1.71336C13.6599 0.858207 13.8582 0.659912 14.7134 0.659912C21.4182 0.659912 28.1293 0.659912 34.8342 0.659912C35.6894 0.659912 35.8938 0.858208 35.8938 1.70716C35.8938 8.1022 35.8938 14.491 35.8938 20.8861C35.8938 21.0596 35.8938 21.2393 35.8938 21.4562C36.0983 21.4562 36.2594 21.4562 36.4206 21.4562C39.3764 21.4562 42.3385 21.4562 45.2943 21.4562C46.0813 21.4562 46.2982 21.6731 46.2982 22.4725C46.2982 29.2083 46.2982 35.9442 46.2982 42.68C46.2982 43.467 46.0813 43.6839 45.2881 43.6839C31.6181 43.6839 17.9543 43.6839 4.28424 43.6839C3.48486 43.6839 3.27417 43.467 3.27417 42.68C3.27417 35.9442 3.27417 29.2083 3.27417 22.4725C3.27417 21.6731 3.48486 21.4562 4.27185 21.4562C7.22769 21.4562 10.1897 21.4562 13.1456 21.4562C13.2943 21.45 13.4554 21.45 13.6599 21.45ZM27.6336 2.10375C27.6336 2.30825 27.6336 2.46936 27.6336 2.63667C27.6336 4.23544 27.6336 5.8342 27.6336 7.42676C27.6336 8.09601 27.3795 8.35627 26.7165 8.35627C25.4337 8.36247 24.151 8.36247 22.8621 8.35627C22.168 8.35627 21.9202 8.1022 21.914 7.40817C21.914 5.79701 21.914 4.18586 21.914 2.56851C21.914 2.41359 21.914 2.25867 21.914 2.10375C19.6026 2.10375 17.3718 2.10375 15.1162 2.10375C15.1162 8.54837 15.1162 14.9744 15.1162 21.419C21.567 21.419 27.993 21.419 34.4252 21.419C34.4252 14.9682 34.4252 8.54217 34.4252 2.09756C32.1634 2.10375 29.9264 2.10375 27.6336 2.10375ZM24.0333 22.9062C21.7653 22.9062 19.5158 22.9062 17.2354 22.9062C17.2354 23.0921 17.2354 23.2533 17.2354 23.4144C17.2354 25.0131 17.2354 26.6119 17.2354 28.2044C17.2354 28.8985 16.9814 29.1464 16.2873 29.1464C15.017 29.1464 13.7467 29.1464 12.4763 29.1464C11.7575 29.1464 11.5158 28.8985 11.5158 28.1673C11.5158 26.5685 11.5158 24.9697 11.5158 23.3772C11.5158 23.2223 11.5158 23.0611 11.5158 22.9124C9.20446 22.9124 6.96123 22.9124 4.73041 22.9124C4.73041 29.3694 4.73041 35.7955 4.73041 42.2215C11.1812 42.2215 17.5949 42.2215 24.0333 42.2215C24.0333 35.7893 24.0333 29.3694 24.0333 22.9062ZM32.3121 22.9124C30.0007 22.9124 27.7575 22.9124 25.5205 22.9124C25.5205 29.3694 25.5205 35.7955 25.5205 42.2029C31.9837 42.2029 38.4097 42.2029 44.8234 42.2029C44.8234 35.7521 44.8234 29.3385 44.8234 22.9062C42.5553 22.9062 40.3059 22.9062 38.0255 22.9062C38.0255 23.0921 38.0255 23.2533 38.0255 23.4144C38.0255 25.0255 38.0317 26.6367 38.0255 28.254C38.0255 28.8923 37.7591 29.1526 37.1208 29.1526C35.8195 29.1588 34.5244 29.1588 33.223 29.1526C32.5662 29.1526 32.3121 28.8923 32.3059 28.223C32.3059 28.0743 32.3059 27.9256 32.3059 27.7769C32.3121 26.1657 32.3121 24.5546 32.3121 22.9124ZM23.364 6.90004C24.3245 6.90004 25.2416 6.90004 26.165 6.90004C26.165 5.28268 26.165 3.69632 26.165 2.12234C25.2107 2.12234 24.2935 2.12234 23.364 2.12234C23.364 3.72111 23.364 5.28888 23.364 6.90004ZM12.9659 27.6901C13.9264 27.6901 14.8435 27.6901 15.7792 27.6901C15.7792 26.0852 15.7792 24.5112 15.7792 22.9186C14.8311 22.9186 13.9016 22.9186 12.9659 22.9186C12.9659 24.5236 12.9659 26.0852 12.9659 27.6901ZM36.5631 27.7025C36.5631 26.0852 36.5631 24.4926 36.5631 22.9186C35.6088 22.9186 34.6917 22.9186 33.7746 22.9186C33.7746 24.5298 33.7746 26.1038 33.7746 27.7025C34.7103 27.7025 35.615 27.7025 36.5631 27.7025Z" fill="#0061AF"/>
<path d="M27.6335 2.10376C29.9325 2.10376 32.1634 2.10376 34.4314 2.10376C34.4314 8.54218 34.4314 14.9682 34.4314 21.4252C27.9992 21.4252 21.5731 21.4252 15.1223 21.4252C15.1223 14.9868 15.1223 8.56077 15.1223 2.10996C17.3779 2.10996 19.615 2.10996 21.9201 2.10996C21.9201 2.26488 21.9201 2.41979 21.9201 2.57471C21.9201 4.18587 21.9201 5.79702 21.9201 7.41437C21.9201 8.10841 22.168 8.35628 22.8682 8.36247C24.151 8.36247 25.4337 8.36867 26.7226 8.36247C27.3857 8.36247 27.6397 8.10221 27.6397 7.43296C27.6459 5.8342 27.6397 4.23544 27.6397 2.64288C27.6335 2.47556 27.6335 2.30825 27.6335 2.10376ZM20.1107 19.3059C20.9906 19.3059 21.8706 19.3121 22.7505 19.3059C23.2772 19.3059 23.5995 19.0271 23.5995 18.5933C23.5995 18.1657 23.2648 17.8745 22.7505 17.8745C20.9906 17.8683 19.2308 17.8683 17.4709 17.8745C16.9504 17.8745 16.6219 18.1719 16.6219 18.5995C16.6219 19.0333 16.9442 19.3059 17.4709 19.3059C18.3508 19.3059 19.2308 19.3059 20.1107 19.3059ZM19.4291 16.096C20.0859 16.096 20.7428 16.1022 21.3996 16.096C21.9263 16.0898 22.2486 15.7986 22.2362 15.371C22.23 14.962 21.9078 14.6708 21.4182 14.6646C20.0921 14.6584 18.7598 14.6584 17.4337 14.6646C16.9442 14.6708 16.6281 14.962 16.6219 15.371C16.6157 15.8048 16.9318 16.0836 17.4647 16.0898C18.1215 16.1022 18.7784 16.096 19.4291 16.096Z" fill="white"/>
<path d="M24.0332 22.9062C24.0332 29.3695 24.0332 35.7831 24.0332 42.2215C17.5948 42.2215 11.1812 42.2215 4.73035 42.2215C4.73035 35.8017 4.73035 29.3757 4.73035 22.9124C6.96118 22.9124 9.2106 22.9124 11.5158 22.9124C11.5158 23.0612 11.5158 23.2223 11.5158 23.3772C11.5158 24.976 11.5158 26.5747 11.5158 28.1673C11.5158 28.8985 11.7575 29.1464 12.4763 29.1464C13.7466 29.1464 15.0169 29.1464 16.2873 29.1464C16.9813 29.1464 17.2354 28.8985 17.2354 28.2045C17.2416 26.6057 17.2354 25.0069 17.2354 23.4144C17.2354 23.2533 17.2354 23.0922 17.2354 22.9062C19.5158 22.9062 21.7652 22.9062 24.0332 22.9062ZM9.66915 40.1022C10.5615 40.1022 11.46 40.1084 12.3523 40.1022C12.8853 40.1022 13.2013 39.8296 13.2013 39.3958C13.2013 38.9682 12.8729 38.677 12.3523 38.677C10.5925 38.6708 8.83259 38.6708 7.07272 38.677C6.55219 38.677 6.22376 38.9682 6.22376 39.3958C6.22376 39.8296 6.5398 40.1022 7.07272 40.1022C7.93406 40.1022 8.80161 40.1022 9.66915 40.1022ZM9.0123 36.8861C9.66915 36.8861 10.326 36.8923 10.9829 36.8861C11.5158 36.8799 11.838 36.6073 11.8442 36.1797C11.8504 35.7583 11.5158 35.4609 10.9953 35.4547C9.68155 35.4485 8.36784 35.4485 7.05413 35.4547C6.5398 35.4609 6.21137 35.7645 6.22376 36.1921C6.23616 36.6073 6.54599 36.8799 7.04793 36.8861C7.70478 36.8923 8.36164 36.8861 9.0123 36.8861Z" fill="white"/>
<path d="M32.3122 22.9125C32.3122 24.5485 32.3122 26.1596 32.3122 27.7708C32.3122 27.9195 32.3122 28.0682 32.3122 28.217C32.3184 28.8862 32.5662 29.1465 33.2293 29.1465C34.5306 29.1527 35.8257 29.1527 37.127 29.1465C37.7653 29.1465 38.0256 28.88 38.0318 28.2479C38.038 26.6368 38.0318 25.0256 38.0318 23.4083C38.0318 23.2472 38.0318 23.086 38.0318 22.9001C40.3184 22.9001 42.5616 22.9001 44.8296 22.9001C44.8296 29.3324 44.8296 35.746 44.8296 42.1968C38.4098 42.1968 31.9837 42.1968 25.5267 42.1968C25.5267 35.7894 25.5267 29.3634 25.5267 22.9063C27.7576 22.9125 30.007 22.9125 32.3122 22.9125ZM30.5089 40.1023C31.3889 40.1023 32.2688 40.1023 33.1487 40.1023C33.6755 40.1023 33.9977 39.8297 33.9977 39.3959C33.9977 38.9683 33.6693 38.6771 33.1487 38.6709C31.3889 38.6647 29.629 38.6647 27.8691 38.6709C27.3486 38.6709 27.0201 38.9621 27.0201 39.3897C27.0201 39.8235 27.3362 40.0961 27.8691 40.1023C28.749 40.1023 29.629 40.1023 30.5089 40.1023ZM29.7963 36.8862C30.4841 36.8862 31.1658 36.8924 31.8536 36.8862C32.3246 36.88 32.622 36.6012 32.6406 36.1984C32.653 35.7894 32.3308 35.4671 31.8536 35.4609C30.5089 35.4486 29.1704 35.4486 27.8257 35.4609C27.3362 35.4671 27.0201 35.7646 27.0201 36.1798C27.0201 36.595 27.33 36.88 27.8257 36.8862C28.4826 36.8924 29.1394 36.8862 29.7963 36.8862Z" fill="white"/>
<path d="M23.364 6.90001C23.364 5.28885 23.364 3.72107 23.364 2.12231C24.2935 2.12231 25.2106 2.12231 26.1649 2.12231C26.1649 3.69629 26.1649 5.28265 26.1649 6.90001C25.2354 6.90001 24.3183 6.90001 23.364 6.90001Z" fill="white"/>
<path d="M12.9659 27.6902C12.9659 26.0852 12.9659 24.5237 12.9659 22.9187C13.9017 22.9187 14.8312 22.9187 15.7793 22.9187C15.7793 24.5051 15.7793 26.0852 15.7793 27.6902C14.8436 27.6902 13.9264 27.6902 12.9659 27.6902Z" fill="white"/>
<path d="M36.5631 27.7026C35.615 27.7026 34.7102 27.7026 33.7745 27.7026C33.7745 26.1038 33.7745 24.5299 33.7745 22.9187C34.6917 22.9187 35.6088 22.9187 36.5631 22.9187C36.5631 24.4927 36.5631 26.079 36.5631 27.7026Z" fill="white"/>
<path d="M20.1107 19.306C19.2308 19.306 18.3508 19.306 17.4709 19.306C16.938 19.306 16.6219 19.0333 16.6219 18.5995C16.6219 18.172 16.9504 17.8807 17.4709 17.8745C19.2308 17.8683 20.9907 17.8683 22.7505 17.8745C23.2711 17.8745 23.5995 18.172 23.5995 18.5933C23.5995 19.0271 23.2835 19.2998 22.7505 19.306C21.8706 19.306 20.9907 19.306 20.1107 19.306Z" fill="#0061AF"/>
<path d="M19.4291 16.0959C18.7723 16.0959 18.1154 16.1021 17.4586 16.0959C16.9318 16.0897 16.6096 15.8109 16.6158 15.3771C16.622 14.9619 16.938 14.6707 17.4276 14.6707C18.7537 14.6645 20.086 14.6645 21.4121 14.6707C21.9016 14.6769 22.2239 14.9681 22.2301 15.3771C22.2363 15.8047 21.914 16.0959 21.3935 16.1021C20.7428 16.1021 20.086 16.0959 19.4291 16.0959Z" fill="#0061AF"/>
<path d="M9.66927 40.1023C8.80172 40.1023 7.94037 40.1085 7.07283 40.1023C6.54611 40.1023 6.22388 39.8296 6.22388 39.3958C6.22388 38.9683 6.5523 38.677 7.07283 38.677C8.83271 38.6708 10.5926 38.6708 12.3525 38.677C12.873 38.677 13.2014 38.9745 13.2014 39.3958C13.2014 39.8296 12.8854 40.1023 12.3525 40.1023C11.4539 40.1023 10.5616 40.1023 9.66927 40.1023Z" fill="#0061AF"/>
<path d="M9.01235 36.886C8.3555 36.886 7.69864 36.8922 7.04179 36.886C6.53985 36.8798 6.23001 36.6072 6.21762 36.192C6.20522 35.7706 6.53985 35.4608 7.04798 35.4546C8.36169 35.4484 9.6754 35.4484 10.9891 35.4546C11.5096 35.4546 11.8381 35.7582 11.8381 36.1796C11.8319 36.6072 11.5096 36.8798 10.9767 36.886C10.3261 36.8922 9.66921 36.886 9.01235 36.886Z" fill="#0061AF"/>
<path d="M30.5089 40.1021C29.629 40.1021 28.749 40.1083 27.8691 40.1021C27.3424 40.1021 27.0201 39.8295 27.0201 39.3895C27.0201 38.9619 27.3486 38.6707 27.8691 38.6707C29.629 38.6645 31.3888 38.6645 33.1487 38.6707C33.6693 38.6707 33.9977 38.9681 33.9977 39.3957C33.9977 39.8295 33.6754 40.1021 33.1487 40.1021C32.2688 40.1021 31.3889 40.1021 30.5089 40.1021Z" fill="#0061AF"/>
<path d="M29.7963 36.8862C29.1394 36.8862 28.4826 36.8924 27.8257 36.8862C27.33 36.88 27.0201 36.595 27.0201 36.1798C27.0201 35.7708 27.3362 35.4672 27.8257 35.461C29.1704 35.4486 30.5089 35.4486 31.8536 35.461C32.3308 35.4672 32.653 35.7894 32.6406 36.1984C32.6282 36.6012 32.3246 36.88 31.8536 36.8862C31.1658 36.8924 30.4841 36.8862 29.7963 36.8862Z" fill="#0061AF"/>
<path d="M49.0495 44.5886H0.491821V47.6746H49.0495V44.5886Z" fill="white"/>
<path d="M10.9085 47.6809H4.73035V50.7359H10.9085V47.6809Z" fill="white"/>
<path d="M44.8357 47.6809H38.6576V50.7359H44.8357V47.6809Z" fill="white"/>
</svg>
