<svg width="37" height="37" viewBox="0 0 37 37" fill="none" xmlns="http://www.w3.org/2000/svg">
<path d="M6.16659 27.7499V27.4416C6.16659 24.8513 6.16659 23.5562 6.67068 22.5669C7.11409 21.6966 7.82163 20.9891 8.69188 20.5457C9.68122 20.0416 10.9763 20.0416 13.5666 20.0416H23.4333C26.0235 20.0416 27.3186 20.0416 28.308 20.5457C29.1782 20.9891 29.8857 21.6966 30.3292 22.5669C30.8333 23.5562 30.8333 24.8513 30.8333 27.4416V27.7499M6.16659 27.7499C4.46371 27.7499 3.08325 29.1304 3.08325 30.8333C3.08325 32.5361 4.46371 33.9166 6.16659 33.9166C7.86946 33.9166 9.24992 32.5361 9.24992 30.8333C9.24992 29.1304 7.86946 27.7499 6.16659 27.7499ZM30.8333 27.7499C29.1304 27.7499 27.7499 29.1304 27.7499 30.8333C27.7499 32.5361 29.1304 33.9166 30.8333 33.9166C32.5361 33.9166 33.9166 32.5361 33.9166 30.8333C33.9166 29.1304 32.5361 27.7499 30.8333 27.7499ZM18.4999 27.7499C16.797 27.7499 15.4166 29.1304 15.4166 30.8333C15.4166 32.5361 16.797 33.9166 18.4999 33.9166C20.2028 33.9166 21.5833 32.5361 21.5833 30.8333C21.5833 29.1304 20.2028 27.7499 18.4999 27.7499ZM18.4999 27.7499V12.3333M9.24992 12.3333H27.7499C29.1866 12.3333 29.9049 12.3333 30.4715 12.0985C31.227 11.7856 31.8273 11.1854 32.1402 10.4299C32.3749 9.86323 32.3749 9.1449 32.3749 7.70825C32.3749 6.2716 32.3749 5.55327 32.1402 4.98664C31.8273 4.23114 31.227 3.6309 30.4715 3.31796C29.9049 3.08325 29.1866 3.08325 27.7499 3.08325H9.24992C7.81327 3.08325 7.09494 3.08325 6.52831 3.31796C5.77281 3.6309 5.17256 4.23114 4.85962 4.98664C4.62492 5.55327 4.62492 6.2716 4.62492 7.70825C4.62492 9.1449 4.62492 9.86323 4.85962 10.4299C5.17256 11.1854 5.77281 11.7856 6.52831 12.0985C7.09494 12.3333 7.81327 12.3333 9.24992 12.3333Z" stroke="#2361A9" stroke-width="2" stroke-linecap="round" stroke-linejoin="round"/>
</svg>
