<svg width="36" height="48" viewBox="0 0 36 48" fill="none" xmlns="http://www.w3.org/2000/svg">
<path d="M34.5 32.1338L26 36.856M26 36.856L17.5 32.1338M26 36.856L26 46.356M35 40.9146V32.7975C35 32.4548 35 32.2835 34.9495 32.1307C34.9049 31.9955 34.8318 31.8715 34.7354 31.7668C34.6263 31.6484 34.4766 31.5652 34.177 31.3988L26.777 27.2877C26.4934 27.1302 26.3516 27.0514 26.2015 27.0205C26.0685 26.9932 25.9315 26.9932 25.7986 27.0205C25.6484 27.0514 25.5066 27.1302 25.223 27.2877L17.823 31.3988C17.5234 31.5652 17.3737 31.6484 17.2646 31.7668C17.1682 31.8715 17.0951 31.9955 17.0505 32.1307C17 32.2835 17 32.4548 17 32.7975V40.9146C17 41.2572 17 41.4286 17.0505 41.5814C17.0951 41.7165 17.1682 41.8406 17.2646 41.9453C17.3737 42.0636 17.5234 42.1468 17.823 42.3132L25.223 46.4244C25.5066 46.5819 25.6484 46.6607 25.7986 46.6916C25.9315 46.7189 26.0685 46.7189 26.2015 46.6916C26.3516 46.6607 26.4934 46.5819 26.777 46.4244L34.177 42.3132C34.4766 42.1468 34.6263 42.0636 34.7354 41.9453C34.8318 41.8406 34.9049 41.7165 34.9495 41.5814C35 41.4286 35 41.2572 35 40.9146Z" stroke="#2361A9" stroke-width="2" stroke-linecap="round" stroke-linejoin="round"/>
<path d="M4.16635 18.5834L6.59392 28.2937C6.66219 28.5668 6.69633 28.7033 6.73672 28.8225C7.13122 29.9873 8.1801 30.8062 9.40573 30.9064C9.53119 30.9167 9.67194 30.9167 9.95344 30.9167C10.3059 30.9167 10.4822 30.9167 10.6307 30.9023C12.0982 30.76 13.2596 29.5986 13.4019 28.131C13.4163 27.9826 13.4163 27.8063 13.4163 27.4538V5.47921M26.5205 17.8125C29.5005 17.8125 31.9163 15.3967 31.9163 12.4167C31.9163 9.43668 29.5005 7.02088 26.5205 7.02088M13.8018 5.47921H8.02051C4.18903 5.47921 1.08301 8.58524 1.08301 12.4167C1.08301 16.2482 4.18903 19.3542 8.02051 19.3542H13.8018C16.525 19.3542 19.8563 20.814 22.4263 22.215C23.9256 23.0323 24.6753 23.441 25.1663 23.3808C25.6216 23.3251 25.9658 23.1207 26.2327 22.7476C26.5205 22.3453 26.5205 21.5403 26.5205 19.9304V4.90307C26.5205 3.29312 26.5205 2.48815 26.2327 2.08583C25.9658 1.71277 25.6216 1.50834 25.1663 1.45258C24.6753 1.39244 23.9256 1.8011 22.4263 2.61843C19.8563 4.01943 16.525 5.47921 13.8018 5.47921Z" stroke="#2361A9" stroke-width="2" stroke-linecap="round" stroke-linejoin="round"/>
</svg>
