<svg width="46" height="46" viewBox="0 0 46 46" fill="none" xmlns="http://www.w3.org/2000/svg">
<path d="M26.8333 38.25C26.8333 40.3671 25.1171 42.0833 23 42.0833C20.8829 42.0833 19.1667 40.3671 19.1667 38.25M26.8333 38.25C26.8333 36.1329 25.1171 34.4167 23 34.4167M26.8333 38.25H40.25M19.1667 38.25C19.1667 36.1329 20.8829 34.4167 23 34.4167M19.1667 38.25H5.75M23 34.4167V26.75" stroke="#2361A9" stroke-width="2" stroke-linecap="round" stroke-linejoin="round"/>
<path d="M32.0512 11.7401L23.0003 17.25M23.0003 17.25L13.9494 11.7401M23.0003 17.25L23.0003 28.3346M32.5837 21.9855V12.5145C32.5837 12.1147 32.5837 11.9148 32.5299 11.7365C32.4823 11.5788 32.4046 11.434 32.3019 11.3119C32.1858 11.1738 32.0263 11.0767 31.7073 10.8825L23.8277 6.08572C23.5257 5.90188 23.3747 5.80996 23.2148 5.77392C23.0733 5.74203 22.9273 5.74203 22.7858 5.77392C22.6259 5.80996 22.4749 5.90188 22.1729 6.08572L14.2933 10.8826C13.9744 11.0767 13.8149 11.1738 13.6988 11.3119C13.596 11.434 13.5183 11.5788 13.4707 11.7365C13.417 11.9148 13.417 12.1147 13.417 12.5145V21.9855C13.417 22.3853 13.417 22.5852 13.4707 22.7635C13.5183 22.9212 13.596 23.066 13.6988 23.1881C13.8149 23.3262 13.9744 23.4233 14.2933 23.6175L22.1729 28.4143C22.4749 28.5981 22.6259 28.69 22.7858 28.7261C22.9273 28.758 23.0733 28.758 23.2148 28.7261C23.3747 28.69 23.5257 28.5981 23.8277 28.4143L31.7073 23.6175C32.0263 23.4233 32.1858 23.3262 32.3019 23.1881C32.4046 23.066 32.4823 22.9212 32.5299 22.7635C32.5837 22.5852 32.5837 22.3853 32.5837 21.9855Z" stroke="#2361A9" stroke-width="2" stroke-linecap="round" stroke-linejoin="round"/>
</svg>
