<svg width="37" height="37" viewBox="0 0 37 37" fill="none" xmlns="http://www.w3.org/2000/svg">
<path d="M13.875 18.5H7.09167C6.22825 18.5 5.79655 18.5 5.46676 18.668C5.17668 18.8158 4.94084 19.0517 4.79303 19.3418C4.625 19.6715 4.625 20.1033 4.625 20.9667V29.9083C4.625 30.7717 4.625 31.2035 4.79303 31.5332C4.94084 31.8233 5.17668 32.0592 5.46676 32.207C5.79655 32.375 6.22825 32.375 7.09167 32.375H13.875M13.875 32.375H23.125M13.875 32.375L13.875 13.2583C13.875 12.3949 13.875 11.9632 14.043 11.6334C14.1908 11.3433 14.4267 11.1075 14.7168 10.9597C15.0465 10.7917 15.4783 10.7917 16.3417 10.7917H20.6583C21.5217 10.7917 21.9535 10.7917 22.2832 10.9597C22.5733 11.1075 22.8092 11.3433 22.957 11.6334C23.125 11.9632 23.125 12.3949 23.125 13.2583V32.375M23.125 32.375H29.9083C30.7717 32.375 31.2035 32.375 31.5332 32.207C31.8233 32.0592 32.0592 31.8233 32.207 31.5332C32.375 31.2035 32.375 30.7717 32.375 29.9083V7.09167C32.375 6.22825 32.375 5.79655 32.207 5.46676C32.0592 5.17668 31.8233 4.94084 31.5332 4.79303C31.2035 4.625 30.7717 4.625 29.9083 4.625H25.5917C24.7283 4.625 24.2965 4.625 23.9668 4.79303C23.6767 4.94084 23.4408 5.17668 23.293 5.46677C23.125 5.79655 23.125 6.22825 23.125 7.09167V12.3333" stroke="#2361A9" stroke-width="2" stroke-linecap="round" stroke-linejoin="round"/>
</svg>
