<svg width="37" height="37" viewBox="0 0 37 37" fill="none" xmlns="http://www.w3.org/2000/svg">
<path d="M18.4999 22.9082C17.9022 22.9082 17.4159 22.4219 17.4159 21.8242C17.4159 21.3876 17.6757 20.9955 18.0778 20.8251C18.5632 20.6196 19.1441 20.795 19.6719 21.3064C20.1019 21.7229 20.7881 21.7121 21.2047 21.2822C21.6213 20.8522 21.6104 20.1659 21.1805 19.7494C20.6911 19.2753 20.1471 18.9402 19.5839 18.7511V17.4883C19.5839 16.8896 19.0986 16.4043 18.4999 16.4043C17.9013 16.4043 17.4159 16.8896 17.4159 17.4883V18.7581C17.3544 18.78 17.2932 18.8031 17.2324 18.8288C16.0269 19.3394 15.248 20.5151 15.248 21.8242C15.248 23.6173 16.7068 25.0762 18.4999 25.0762C19.0976 25.0762 19.5839 25.5624 19.5839 26.1602C19.5839 26.6144 19.2974 27.024 18.8709 27.1793C18.3141 27.382 17.666 27.1071 17.0928 26.4245C16.7077 25.9661 16.024 25.9066 15.5656 26.2916C15.1071 26.6766 15.0476 27.3604 15.4327 27.8188C16.0187 28.5165 16.7008 28.995 17.416 29.2358V30.4961C17.416 31.0947 17.9013 31.5801 18.5 31.5801C19.0986 31.5801 19.584 31.0947 19.584 30.4961V29.2262C19.5937 29.2228 19.6033 29.2198 19.613 29.2163C20.8923 28.7504 21.7519 27.5221 21.7519 26.1602C21.7519 24.367 20.293 22.9082 18.4999 22.9082Z" fill="#2361A9"/>
<path d="M28.5391 16.2785C27.2507 14.6935 25.7779 13.4307 24.1612 12.5226C24.426 12.2093 24.6349 11.842 24.7698 11.4326C25.2993 9.82047 24.5259 7.90543 22.5522 7.28156L25.3191 2.45674C25.6682 1.84783 25.3546 1.07228 24.6815 0.876582C22.6809 0.294916 20.6012 0 18.5 0C16.3988 0 14.3191 0.294916 12.3185 0.876582C11.6446 1.07249 11.3322 1.84855 11.6809 2.45674L14.4478 7.28163C12.4819 7.90232 11.6988 9.81454 12.2305 11.4335C12.3649 11.8418 12.5738 12.2089 12.8394 12.5223C11.2224 13.4304 9.7495 14.6933 8.461 16.2785C5.88538 19.4471 4.4082 23.4439 4.4082 27.2441C4.4082 35.1277 10.6987 37 18.5 37C26.3068 37 32.5918 35.1245 32.5918 27.2441C32.5918 23.4439 31.1146 19.4471 28.5391 16.2785ZM14.2722 2.61732C15.6551 2.31879 17.0719 2.16797 18.5 2.16797C19.9281 2.16797 21.3449 2.31879 22.7278 2.61732L20.3407 6.77996C19.118 6.60927 17.8823 6.60934 16.6594 6.78003L14.2722 2.61732ZM14.9804 9.38702C16.8459 8.77507 18.7977 8.65908 20.6951 9.03841C20.6974 9.03884 20.6997 9.03927 20.7019 9.03971C21.1442 9.12845 21.5835 9.24393 22.0181 9.38651C22.5862 9.57375 22.8966 10.1882 22.7104 10.7553C22.5751 11.166 22.2177 11.4488 21.7973 11.4946C20.7165 11.1562 19.6141 10.9844 18.5 10.9844C17.3881 10.9844 16.2879 11.1555 15.2092 11.4925C14.7823 11.4486 14.4241 11.1637 14.2899 10.7563C14.1034 10.1882 14.4138 9.57368 14.9804 9.38702ZM18.5 34.8465C10.0308 34.8465 6.57617 32.6337 6.57617 27.2441C6.57617 23.9819 7.90969 20.3939 10.1432 17.646C12.4987 14.7482 15.4665 13.1523 18.5 13.1523C21.8391 13.1523 24.7597 15.0661 26.8568 17.646C29.0903 20.3939 30.4238 23.9819 30.4238 27.2441C30.4238 32.6337 26.9692 34.8465 18.5 34.8465Z" fill="#2361A9"/>
</svg>
