<svg width="37" height="37" viewBox="0 0 37 37" fill="none" xmlns="http://www.w3.org/2000/svg">
<path d="M32.6994 24.4971C31.7186 26.8165 30.1846 28.8603 28.2314 30.4499C26.2783 32.0395 23.9655 33.1265 21.4952 33.6157C19.025 34.105 16.4725 33.9816 14.0609 33.2565C11.6493 32.5314 9.45201 31.2266 7.6612 29.4561C5.87039 27.6856 4.54055 25.5034 3.78794 23.1003C3.03533 20.6971 2.88287 18.1462 3.34389 15.6705C3.8049 13.1948 4.86535 10.8697 6.43254 8.89855C7.99972 6.92738 10.0259 5.37012 12.334 4.36292M32.7438 12.6003C33.3609 14.0903 33.7395 15.6654 33.868 17.268C33.8997 17.6639 33.9156 17.8618 33.837 18.0401C33.7713 18.1891 33.6412 18.33 33.498 18.4074C33.3265 18.5 33.1123 18.5 32.684 18.5H19.734C19.3023 18.5 19.0864 18.5 18.9215 18.416C18.7765 18.3421 18.6585 18.2242 18.5846 18.0791C18.5006 17.9142 18.5006 17.6984 18.5006 17.2667V4.31667C18.5006 3.88829 18.5006 3.6741 18.5932 3.50264C18.6706 3.35942 18.8116 3.22932 18.9605 3.16365C19.1388 3.08504 19.3368 3.10091 19.7327 3.13265C21.3352 3.26112 22.9104 3.6397 24.4003 4.25686C26.2708 5.03162 27.9703 6.16721 29.4019 7.59878C30.8334 9.03035 31.969 10.7299 32.7438 12.6003Z" stroke="#2361A9" stroke-width="2" stroke-linecap="round" stroke-linejoin="round"/>
</svg>
