<svg width="90" height="77" viewBox="0 0 90 77" fill="none" xmlns="http://www.w3.org/2000/svg">
<path d="M128.04 167.125C128.396 167.153 128.68 167.196 128.949 167.196C142.031 167.196 155.128 167.196 168.209 167.196C174.956 167.196 181.703 167.196 188.45 167.196C188.706 167.196 188.976 167.21 189.217 167.295C189.757 167.466 190.126 168.034 190.14 168.602C190.155 169.199 189.785 169.781 189.203 169.98C188.919 170.08 188.606 170.108 188.294 170.108C180.51 170.108 172.726 170.108 164.928 170.108C153.38 170.108 141.833 170.108 130.285 170.108C129.333 170.108 128.396 170.122 127.444 170.108C127.032 170.094 126.734 170.193 126.478 170.549C126.322 170.762 125.995 170.932 125.711 170.989C123.893 171.387 122.061 171.756 120.228 172.14C118.282 172.538 116.322 172.452 114.362 172.282C113.638 172.225 113.183 171.799 112.942 171.074C112.629 170.094 112.601 170.108 111.578 170.122C110.825 170.137 110.825 170.137 110.612 170.847C110.399 171.515 109.873 171.841 109.192 171.657C108.68 171.515 108.197 171.302 107.999 170.748C107.814 170.193 107.416 170.108 106.891 170.122C97.4734 170.137 88.0561 170.137 78.6246 170.137C63.8809 170.137 49.1371 170.137 34.3933 170.137C21.0273 170.137 7.64713 170.137 -5.71885 170.137C-21.4995 170.137 -37.2944 170.137 -53.0751 170.137C-66.9382 170.137 -80.8155 170.137 -94.6786 170.137C-95.7155 170.137 -96.7666 170.137 -97.8035 170.137C-98.0166 170.137 -98.2296 170.122 -98.4285 170.066C-99.1245 169.867 -99.5932 169.185 -99.4938 168.503C-99.3944 167.778 -98.8546 167.239 -98.1018 167.224C-96.724 167.196 -95.3604 167.21 -93.9826 167.21C-82.3921 167.21 -70.7875 167.21 -59.197 167.21C-54.6517 167.21 -50.1064 167.196 -45.5611 167.224C-44.9788 167.224 -44.5526 167.054 -44.1265 166.628C-40.3056 162.806 -36.1581 159.354 -31.7122 156.271C-30.4481 155.39 -29.2265 154.453 -28.0192 153.515C-27.4652 153.089 -26.8828 152.861 -26.1868 152.876C-23.8858 152.947 -21.5989 152.961 -19.2979 153.089C-18.261 153.146 -17.2525 153.401 -16.2156 153.572C-15.9173 153.629 -15.619 153.7 -15.2782 153.785C-15.1787 153.572 -15.0651 153.387 -14.9941 153.202C-12.2243 146.539 -9.4545 139.877 -6.69891 133.214C-3.1053 124.519 0.474106 115.796 4.09613 107.102C6.51081 101.306 9.19538 95.6514 11.9368 90.0114C13.2293 87.369 14.5077 84.7407 15.7292 82.0699C16.6383 80.0952 17.9451 78.504 19.7206 77.2681C26.6095 72.4946 33.47 67.6786 41.0692 64.0701C41.7084 63.7718 42.376 63.5161 43.0578 63.2319C43.0009 62.4932 42.7311 61.7829 42.4896 61.0867C42.447 60.9447 42.2197 60.8168 42.0635 60.76C37.9585 59.2683 35.0609 56.3559 32.6462 52.8611C31.2826 50.8864 30.1179 48.8122 29.0242 46.6812C28.8537 46.3403 28.6407 46.1698 28.243 46.0845C27.7884 45.9851 27.3623 45.7578 26.9646 45.5021C26.1976 45.0048 25.6152 44.3229 25.1039 43.57C24.4505 42.5897 24.28 41.4958 24.4505 40.3735C24.5357 39.8194 24.3653 39.5211 23.9534 39.1801C22.4051 37.9299 21.3398 36.3388 20.658 34.4777C19.962 32.6025 19.4507 30.6988 19.3513 28.6814C19.3513 28.6104 19.3086 28.5536 19.266 28.3973C19.0246 28.4541 18.7831 28.4826 18.5558 28.5536C17.1638 28.9656 15.786 29.3918 14.3372 29.477C12.7464 29.5765 11.1555 29.6049 9.6215 29.1076C9.03913 28.923 8.47098 28.6672 7.94543 28.3547C7.03637 27.7864 6.53922 26.9482 6.35458 25.8685C6.12731 24.4621 6.38299 23.2119 7.10739 21.9901C9.62151 17.785 12.86 14.3044 17.2064 11.9461C18.9535 10.9942 20.7433 10.1418 22.6608 9.55935C23.1721 9.40308 23.442 9.18998 23.4988 8.60751C23.5983 7.49939 24.209 6.61858 24.9618 5.82301C26.1692 4.55862 27.689 3.80567 29.2799 3.15217C31.5241 2.22874 33.8536 1.54682 36.2682 1.39055C40.7141 1.10642 45.1173 1.23428 49.3359 2.91066C49.9325 3.15217 50.5007 3.4221 51.1541 3.70623C51.1825 3.52154 51.1967 3.37947 51.2109 3.2232C51.2535 2.85383 51.2393 2.45605 51.3245 2.10088C51.5234 1.33372 52.1767 1.078 52.8727 1.46158C53.3841 1.74572 53.6682 2.18612 53.796 2.74018C53.8812 3.15217 53.9239 3.57837 54.0091 4.10401C54.1795 3.93353 54.3074 3.83409 54.421 3.70623C55.0886 2.98169 55.7419 2.22874 56.4379 1.51841C56.8925 1.0638 57.4607 0.836492 58.114 0.992764C58.7532 1.13483 59.1083 1.44738 59.1225 2.10088C59.1367 2.71176 59.0941 3.33686 58.9379 3.91933C58.7248 4.74331 58.3839 5.52467 58.0572 6.40548C58.2419 6.50493 58.4549 6.63279 58.6964 6.71803C60.9122 7.49939 61.9207 9.13315 61.8923 11.392C61.8781 12.5427 62.1906 13.4662 62.8014 14.418C64.1507 16.4922 65.1024 18.7652 65.628 21.1946C65.841 22.1748 65.912 23.1551 65.8126 24.1637C65.7842 24.4337 65.8126 24.7178 65.8126 25.0304C67.5171 25.4281 68.3125 26.7493 69.0085 28.1416C70.3011 30.7556 70.713 33.5401 70.2869 36.424C70.1306 37.4469 69.7045 38.3704 69.1079 39.2228C68.1137 40.6718 66.6933 41.1264 65.0172 40.8707C64.7189 40.8281 64.449 40.6718 64.0655 40.5298C64.0087 40.7855 63.9377 41.027 63.9235 41.2685C63.5826 44.2803 62.8298 47.1785 61.6934 49.9772C61.523 50.4034 61.452 50.8296 61.4662 51.2842C61.5514 53.3867 62.148 55.3899 62.8156 57.3504C62.9292 57.6771 63.1138 57.8334 63.4547 57.9044C66.6364 58.6432 69.8039 59.4103 72.9856 60.1633C77.4457 61.2146 81.7211 62.7915 85.8403 64.8231C87.8715 65.8317 89.9453 66.7694 91.8628 67.9911C94.8456 69.8948 97.2603 72.3526 99.2347 75.2649C101.124 78.0494 102.587 81.0896 103.95 84.1583C106.479 89.8409 108.766 95.623 110.996 101.434C114.007 109.276 116.833 117.174 119.589 125.102C122.742 134.151 125.526 143.315 127.714 152.648C128.296 155.163 128.836 157.677 129.262 160.22C129.418 161.13 129.29 162.11 129.12 163.033C128.921 164.141 128.552 165.221 128.253 166.315C128.211 166.557 128.126 166.798 128.04 167.125ZM10.2749 99.2031C10.1897 99.2457 10.1186 99.2883 10.0334 99.3309C9.9482 99.4872 9.84876 99.6435 9.77774 99.8139C8.5846 102.542 7.34885 105.255 6.21253 108.011C2.07916 117.97 -2.0116 127.957 -6.14497 137.916C-8.44602 143.442 -10.8039 148.94 -13.1049 154.467C-13.46 155.305 -14.0282 155.689 -14.8804 155.703C-15.4486 155.703 -16.0168 155.674 -16.5707 155.603C-19.6104 155.191 -22.65 155.134 -25.7039 155.163C-26.1868 155.163 -26.5561 155.348 -26.9255 155.646C-27.7919 156.342 -28.6868 157.01 -29.5816 157.663C-31.0446 158.743 -32.5644 159.766 -33.9706 160.917C-36.4279 162.92 -38.8284 164.994 -41.2573 167.04C-41.3851 167.139 -41.5272 167.21 -41.6692 167.295C-41.6124 167.352 -41.5698 167.423 -41.513 167.48C-40.9874 167.139 -40.4619 166.812 -39.9647 166.443C-37.4222 164.624 -34.9365 162.735 -32.1809 161.243C-30.6469 160.405 -29.0845 159.61 -27.38 159.141C-26.9539 159.027 -26.4993 159.041 -26.0448 159.013C-25.8175 158.999 -25.6187 159.098 -25.5761 159.354C-25.5335 159.61 -25.6755 159.737 -25.8886 159.837C-26.4567 160.107 -27.0249 160.419 -27.6072 160.689C-30.9452 162.28 -34.1127 164.17 -37.1239 166.315C-37.266 166.415 -37.3938 166.557 -37.5359 166.684C-37.2234 166.741 -36.9961 166.684 -36.783 166.613C-30.2634 164.71 -23.7153 162.934 -16.9968 161.897C-16.4429 161.812 -15.8605 161.797 -15.3066 161.84C-14.7384 161.883 -14.5395 162.266 -14.781 162.792C-14.8946 163.019 -15.0651 163.218 -15.2213 163.431C-16.031 164.568 -16.8548 165.69 -17.6644 166.827C-17.707 166.883 -17.707 166.954 -17.7355 167.054C-17.6502 167.096 -17.565 167.167 -17.494 167.167C-16.1446 167.196 -14.7952 167.338 -13.4884 166.912C-10.8607 166.045 -8.23295 165.164 -5.61941 164.284C-5.29272 164.17 -4.96603 163.985 -4.68195 163.786C-2.65077 162.323 -1.20197 160.377 -0.122459 158.175C0.715584 156.456 1.43999 154.68 2.12178 152.89C4.15295 147.591 6.42559 142.391 9.02493 137.334C12.3629 130.827 15.644 124.306 18.9393 117.771C19.6495 116.379 20.2887 114.958 20.9847 113.552C21.1268 113.253 21.1552 113.012 20.9421 112.699C20.3029 111.762 19.6921 110.81 19.0672 109.858C17.5331 107.5 15.9565 105.156 13.9821 103.124C12.9168 102.016 11.7947 100.95 10.7152 99.8708C10.5448 99.6719 10.4169 99.4162 10.2749 99.2031ZM46.3531 19.9728C45.9554 20.4984 45.6429 20.882 45.3446 21.2656C43.5691 23.5813 41.5806 25.6981 39.1659 27.3886C36.2966 29.3918 33.2002 30.5283 29.6208 29.9458C27.9021 29.6617 26.3254 29.1076 25.0329 27.9001C24.9192 27.8006 24.7914 27.7438 24.5925 27.616C24.6067 27.8148 24.6067 27.9001 24.6209 27.9853C25.4164 32.7019 27.0072 37.177 28.6265 41.6521C28.6691 41.7799 28.7401 41.9078 28.7969 42.0357C29.6918 43.8683 30.5724 45.701 31.4673 47.5194C32.632 49.9061 34.0666 52.1366 35.8137 54.1539C38.5551 57.3078 41.8504 59.4103 46.1258 59.7797C48.6542 59.9928 51.0262 59.5808 53.1994 58.2312C54.8613 57.2083 56.2249 55.8729 57.3186 54.2676C60.5145 49.5794 62.0486 44.3513 62.3468 38.7397C62.4463 36.9497 62.4179 35.1455 62.361 33.3412C62.3184 32.1621 62.1196 30.9971 61.9491 29.818C61.9207 29.6191 61.7503 29.3634 61.5798 29.2781C60.0742 28.5536 59.1225 27.3034 58.3697 25.8827C57.5743 24.3911 57.0771 22.7857 56.58 21.1804C56.509 20.9673 56.4238 20.7542 56.3243 20.4558C56.1255 20.6405 55.9976 20.7542 55.8698 20.882C55.4721 21.2798 55.0886 21.706 54.6625 22.0896C53.6682 22.9846 52.5745 23.6949 51.1967 23.908C48.7536 24.2774 46.836 22.8851 46.4667 20.4416C46.4667 20.3422 46.4241 20.2569 46.3531 19.9728ZM105.484 95.6798C105.243 95.9355 105.058 96.106 104.888 96.2907C103.325 98.166 101.735 100.013 100.215 101.917C98.5813 103.948 97.0899 106.079 95.8967 108.409C95.7405 108.707 95.6837 108.963 95.8541 109.261C95.9251 109.389 95.9678 109.517 96.0246 109.645C98.5671 115.37 101.124 121.095 103.652 126.835C105.186 130.316 106.635 133.839 108.183 137.319C110.115 141.638 112.104 145.929 114.305 150.12C114.788 151.029 114.845 151.91 114.348 152.819C114.22 153.046 114.135 153.302 113.993 153.515C113.339 154.41 112.729 155.348 111.99 156.172C110.243 158.118 108.794 160.277 107.175 162.309C106.777 162.806 106.706 163.275 107.018 163.857C107.814 165.434 108.567 167.04 109.334 168.645C109.376 168.73 109.391 168.83 109.419 168.929C109.49 168.886 109.547 168.844 109.618 168.815C109.689 168.602 109.788 168.389 109.845 168.176C110.129 167.054 110.356 165.917 110.683 164.809C110.896 164.07 111.194 163.332 111.535 162.636C111.777 162.153 112.189 162.209 112.43 162.692C112.473 162.778 112.487 162.877 112.515 162.962C112.785 163.801 113.027 164.639 113.325 165.448C113.865 166.912 114.419 168.375 114.987 169.824C115.058 170.023 115.257 170.307 115.399 170.321C116.166 170.378 116.933 170.35 117.757 170.35C117.728 170.094 117.714 169.924 117.686 169.767C117.26 167.736 116.819 165.704 116.436 163.658C116.294 162.92 116.279 162.153 116.308 161.4C116.322 160.902 116.592 160.675 117.004 160.647C117.416 160.618 117.671 160.775 117.856 161.243C118.027 161.726 118.183 162.238 118.296 162.735C118.637 164.383 118.978 166.031 119.291 167.679C119.447 168.46 119.546 169.256 119.674 170.108C120.328 169.966 120.967 169.824 121.634 169.682C121.634 169.384 121.634 169.156 121.634 168.929C121.592 167.011 121.521 165.093 121.521 163.175C121.521 162.565 121.677 161.968 121.791 161.357C121.847 161.087 122.046 160.888 122.33 160.86C122.657 160.831 122.87 161.044 122.97 161.329C123.097 161.726 123.225 162.153 123.268 162.565C123.467 164.639 123.509 166.727 123.296 168.801C123.282 168.929 123.325 169.071 123.339 169.256C123.637 169.227 123.893 169.185 124.134 169.199C124.93 169.256 125.299 168.83 125.569 168.119C126.478 165.704 127.359 163.289 127.955 160.775C128.055 160.363 128.04 159.993 127.898 159.61C127.444 158.288 127.004 156.967 126.563 155.646C124.674 149.793 122.856 143.911 120.882 138.101C118.41 130.841 115.853 123.624 113.268 116.421C111.081 110.355 108.78 104.317 106.536 98.2654C106.223 97.4415 105.868 96.6175 105.484 95.6798ZM23.3142 113.452C23.2716 113.438 23.2431 113.438 23.2005 113.424C23.1011 113.623 22.9875 113.807 22.8881 114.021C22.4761 114.93 22.0926 115.839 21.6523 116.734C19.2944 121.536 16.9508 126.338 14.5361 131.111C11.0561 137.973 7.60453 144.835 4.42283 151.853C2.9172 155.191 1.43998 158.558 -0.0372391 161.911C-0.633804 163.246 -1.50025 164.34 -2.75021 165.108C-3.75869 165.718 -4.80978 166.272 -5.83247 166.855C-5.9319 166.912 -6.01712 166.969 -6.10235 167.025C-5.81827 167.182 -5.5484 167.196 -5.27853 167.196C2.43426 167.196 10.147 167.196 17.8598 167.196C19.1382 167.196 20.4165 167.196 21.6949 167.196C22.3483 167.196 22.4051 167.125 22.3767 166.443C22.3625 166.116 22.3483 165.775 22.3483 165.448C22.3767 162.934 22.3909 160.434 22.4335 157.919C22.4761 155.262 22.5614 152.62 22.6324 149.963C22.6608 148.756 22.7318 147.548 22.7744 146.341C22.9023 143.386 23.0585 140.431 23.1295 137.476C23.2147 134.279 23.229 131.083 23.2574 127.886C23.3 123.17 23.3142 118.467 23.3426 113.751C23.3568 113.665 23.3284 113.552 23.3142 113.452ZM59.4066 139.948C59.4776 139.948 59.5344 139.948 59.6055 139.948C59.7191 139.735 59.8895 139.521 59.9464 139.294C60.0458 138.854 60.1026 138.413 60.1168 137.959C60.1878 136.41 59.8895 134.89 59.6907 133.37C59.3782 131.068 59.0657 128.781 58.7816 126.48C58.4123 123.567 58.043 120.655 57.7021 117.743C57.4322 115.413 57.1766 113.083 56.9351 110.753C56.7078 108.537 56.4806 106.335 56.2959 104.119C56.1113 102.016 55.9408 99.9276 55.813 97.825C55.6283 94.5433 55.4153 91.2616 55.33 87.9656C55.2732 85.3232 55.3869 82.6666 55.4437 80.0099C55.4579 79.5837 55.5289 79.1575 55.5573 78.7313C55.5999 78.2199 55.8698 77.9074 56.3669 77.7653C57.4606 77.4528 58.4265 76.8987 59.2504 76.1315C60.1452 75.2933 61.0117 74.4125 61.8071 73.4749C63.4121 71.5712 64.5058 69.3692 65.5854 67.1529C66.4376 65.434 67.1762 63.6581 67.5739 61.7686C67.6165 61.5413 67.6449 61.314 67.6734 61.1009C66.9774 60.7316 64.5911 60.0212 64.1366 60.0354C64.1081 60.0923 64.0655 60.1633 64.0797 60.2343C64.1223 61.6976 63.5258 62.9478 62.7587 64.1411C60.5287 67.6076 57.3754 69.8522 53.4977 71.1734C52.0489 71.6706 50.5859 71.7843 49.0803 71.6422C47.9155 71.5286 46.8787 71.074 46.0406 70.25C44.8191 69.0708 44.0094 67.6502 43.6685 65.9738C43.5833 65.5192 43.4555 65.0646 43.3277 64.5247C42.8305 64.7947 42.4186 64.9793 42.0493 65.2066C41.3817 65.6328 40.7283 66.1017 40.0607 66.5421C40.0465 67.3234 40.0181 68.1048 40.0181 68.8719C40.0323 70.7614 40.6147 72.5088 41.5663 74.1284C42.4328 75.6201 43.6543 76.7566 45.231 77.4812C45.8134 77.7511 46.4099 77.9926 47.0065 78.1773C47.7309 78.4046 48.1712 78.8166 48.2706 79.5979C48.4837 81.2885 48.8104 82.9649 48.9666 84.6555C49.3359 88.6191 49.6058 92.5828 49.9325 96.5322C50.174 99.3877 50.3728 102.243 50.7137 105.085C51.0831 108.21 51.5518 111.321 52.0631 114.418C52.958 119.831 54.1937 125.187 55.7988 130.443C56.7078 133.413 57.7163 136.339 58.9947 139.166C59.1367 139.465 59.2788 139.692 59.4066 139.948ZM97.0615 116.933C97.0188 116.947 96.9762 116.976 96.9336 116.99C96.9194 117.032 96.891 117.075 96.891 117.118C96.9762 119.405 97.0757 121.706 97.1751 123.994C97.2745 126.338 97.2319 128.682 97.0757 131.012C96.8768 133.938 96.5643 136.851 96.2944 139.777C96.053 142.349 95.7973 144.906 95.5274 147.477C95.2291 150.389 94.9025 153.302 94.5758 156.228C94.3201 158.459 94.036 160.689 93.7803 162.92C93.6383 164.141 93.4962 165.363 93.3684 166.585C93.3116 167.068 93.3968 167.153 93.894 167.182C93.965 167.182 94.036 167.182 94.107 167.182C97.8711 167.182 101.635 167.182 105.385 167.182C105.626 167.182 105.868 167.125 106.195 167.082C106.024 166.713 105.896 166.457 105.783 166.201C105.456 165.463 105.115 164.738 104.831 163.985C104.504 163.161 104.575 162.366 105.115 161.641C106.805 159.297 108.467 156.939 110.399 154.794C111.365 153.728 112.203 152.549 113.112 151.427C113.339 151.142 113.339 150.901 113.126 150.603C112.714 150.02 112.317 149.438 111.961 148.827C109.774 145.034 107.8 141.127 105.996 137.135C103.084 130.642 100.229 124.121 97.3598 117.601C97.2745 117.388 97.1609 117.16 97.0615 116.933ZM44.3077 61.3567C44.4072 61.7402 44.464 61.9675 44.5208 62.1948C44.9043 63.5587 45.302 64.9225 45.6571 66.2863C45.9838 67.5507 46.6656 68.5736 47.6599 69.3834C47.9724 69.6391 48.3985 69.8522 48.7962 69.8948C50.1172 70.0369 51.424 69.9801 52.7165 69.5681C57.0345 68.19 60.1878 65.4339 62.3468 61.4845C62.4747 61.2572 62.5599 61.0299 62.6735 60.7742C61.8639 60.1349 61.4236 59.2825 61.0685 58.4159C60.5997 57.2794 60.202 56.1144 59.7617 54.9779C59.6907 54.7932 59.6196 54.6227 59.4918 54.3102C57.7873 56.9384 55.7704 59.0126 53.0716 60.3764C50.316 61.7402 47.4042 61.8113 44.3077 61.3567ZM38.9244 67.2098C38.6971 67.3234 38.4983 67.4087 38.2994 67.5223C37.6886 67.8775 37.0921 68.2753 36.4529 68.5878C35.8989 68.8577 35.6717 69.2839 35.6149 69.8664C35.3308 73.0345 35.3592 76.2026 36.0978 79.3138C36.4387 80.7345 36.8648 82.1409 37.3193 83.5332C37.6744 84.6129 38.2284 85.6215 39.0806 86.4029C39.8619 87.1274 40.4016 87.0706 41.0266 86.2182C41.3675 85.7636 41.6658 85.2806 41.9641 84.7976C43.1714 82.8797 44.3077 80.905 45.7991 79.1717C45.8418 79.1291 45.8418 79.0439 45.856 78.9444C45.6997 78.8876 45.5435 78.8166 45.3872 78.7882C44.3645 78.6035 43.4555 78.1631 42.66 77.4954C40.3022 75.4922 39.038 72.935 38.9102 69.838C38.896 69.0282 38.9244 68.1758 38.9244 67.2098ZM68.8949 61.4561C68.8523 61.6834 68.8239 61.8681 68.7955 62.0528C68.6534 63.5019 68.3551 64.9083 67.7159 66.2153C66.8779 67.9627 66.0115 69.6959 65.1024 71.4007C64.1507 73.1765 62.9008 74.7535 61.4236 76.1457C60.1026 77.3817 58.6538 78.4472 56.8357 78.8308C56.722 78.8592 56.6368 78.9302 56.4379 79.0297C56.7078 79.3138 56.9209 79.6121 57.1908 79.811C58.5402 80.8055 59.918 81.7716 61.2957 82.7234C61.594 82.9365 61.9775 83.0644 62.3326 83.178C63.1849 83.4195 63.9235 83.2632 64.4632 82.4961C64.7331 82.1125 65.0172 81.7289 65.2444 81.3169C66.5796 78.9729 67.4887 76.4583 68.0569 73.8443C68.483 71.8838 68.7671 69.8948 69.0369 67.9059C69.2926 66.0164 69.463 64.0985 69.6477 62.1948C69.7045 61.5271 69.6761 61.5271 68.8949 61.4561ZM65.6138 26.1527C65.5285 26.3658 65.4291 26.5931 65.3439 26.8346C65.1166 27.4881 64.8468 28.1558 64.2786 28.5536C63.5258 29.0934 63.3553 29.7327 63.682 30.5567C63.7814 30.7982 63.6536 31.125 64.0087 31.3239C64.1649 30.9971 64.2644 30.6846 64.4348 30.4147C64.7757 29.9032 65.1308 29.406 65.5143 28.9372C65.699 28.7241 65.9689 28.582 66.2529 28.8945C65.9831 29.5196 65.2444 29.8464 65.145 30.5567C65.1876 30.6135 65.2018 30.6704 65.2444 30.6988C66.5086 31.6932 66.7359 33.0571 66.5512 34.5346C66.5086 34.8613 66.4518 35.2307 65.9263 35.4012C65.8694 34.7477 65.8126 34.1652 65.7842 33.5969C65.7416 32.7161 65.4859 31.9348 64.7899 31.2244C64.6621 31.4944 64.5343 31.679 64.4916 31.8921C64.3212 32.6735 64.0797 33.4549 64.0513 34.2504C63.9945 35.8274 64.0371 37.4185 64.0655 38.9954C64.0797 39.4501 64.3354 39.7342 64.7473 39.7768C66.1109 39.9331 67.2898 39.6205 68.0995 38.413C68.6818 37.5322 69.0653 36.5661 69.1506 35.5006C69.3352 33.0003 68.9375 30.5851 67.787 28.3547C67.4603 27.7296 67.02 27.1755 66.5796 26.6215C66.3808 26.3516 66.0967 26.1243 65.6138 26.1527ZM-29.7947 166.969C-29.7805 167.04 -29.7805 167.125 -29.7663 167.196C-29.0703 167.196 -28.3601 167.196 -27.6641 167.196C-25.5619 167.196 -23.4597 167.196 -21.3575 167.196C-21.0734 167.196 -20.8035 167.182 -20.5905 166.926C-20.0081 166.216 -19.4115 165.505 -18.8434 164.795C-18.7723 164.71 -18.7581 164.568 -18.6729 164.312C-22.4512 165.193 -26.1584 165.932 -29.7947 166.969ZM28.243 45.1895C28.1151 44.877 28.0583 44.6781 27.9731 44.4934C27.7032 43.8967 27.4333 43.2858 27.1777 42.6892C26.8652 41.9504 26.5527 41.2117 26.2402 40.4871C26.084 40.1178 25.8283 39.9615 25.5442 40.0467C25.2033 40.1462 25.2601 40.4445 25.2459 40.686C25.1181 42.5045 26.3822 44.465 28.243 45.1895Z" fill="#0061AF"/>
<path d="M46.3531 19.9727C46.4241 20.2568 46.4525 20.342 46.4667 20.4415C46.836 22.885 48.7394 24.2773 51.1967 23.9079C52.5745 23.709 53.6682 22.9845 54.6624 22.0894C55.0886 21.7059 55.4579 21.2797 55.8698 20.8819C55.9976 20.754 56.1397 20.6404 56.3243 20.4557C56.4237 20.754 56.509 20.9671 56.58 21.1802C57.0771 22.7856 57.5743 24.3909 58.3697 25.8826C59.1367 27.3033 60.0742 28.5534 61.5798 29.278C61.7503 29.3632 61.9207 29.6189 61.9491 29.8178C62.1196 30.9828 62.3184 32.1619 62.361 33.3411C62.432 35.1311 62.4463 36.9496 62.3468 38.7396C62.0485 44.3512 60.5003 49.5934 57.3186 54.2674C56.2249 55.8728 54.8613 57.2082 53.1994 58.2311C51.0262 59.5807 48.6541 59.9927 46.1258 59.7796C41.8504 59.4102 38.5551 57.3076 35.8137 54.1538C34.0666 52.1506 32.632 49.9202 31.4673 47.5193C30.5724 45.6866 29.6918 43.854 28.7969 42.0355C28.7401 41.9077 28.6691 41.7798 28.6265 41.6519C27.0072 37.1769 25.4164 32.7018 24.6209 27.9852C24.6067 27.8999 24.6067 27.8005 24.5925 27.6158C24.7914 27.7437 24.9334 27.8005 25.0329 27.8999C26.3396 29.1075 27.9021 29.6616 29.6208 29.9457C33.2002 30.5282 36.2966 29.3916 39.1659 27.3885C41.5805 25.6979 43.5691 23.5953 45.3446 21.2655C45.6571 20.8819 45.9554 20.4983 46.3531 19.9727ZM42.5038 44.0529C42.5038 43.7971 42.4896 43.6267 42.5038 43.4704C42.5606 42.8169 42.66 42.1492 42.6885 41.4957C42.8447 38.2708 42.6174 35.0601 42.4044 31.8636C42.3902 31.5937 42.3902 31.2811 42.0067 31.1391C41.6516 31.4658 41.6658 31.892 41.6516 32.304C41.5947 34.1651 41.5237 36.0403 41.5237 37.9014C41.5237 39.9898 41.3959 42.0639 41.126 44.1239C40.9982 45.0757 41.3533 45.4309 42.3192 45.3883C42.4612 45.3883 42.6032 45.3457 42.7453 45.3315C43.5975 45.2462 44.4355 45.1752 45.2878 45.1042C45.7849 45.0615 46.2821 45.0331 46.765 44.9763C46.9497 44.9621 47.1343 44.9053 47.3048 44.8342C47.5746 44.7064 47.6173 44.4364 47.3758 44.2802C47.1485 44.1239 46.8786 43.9676 46.6088 43.9534C45.8133 43.8966 45.0037 43.8682 44.2083 43.8824C43.6827 43.8824 43.143 43.9818 42.5038 44.0529ZM52.9438 44.4791C52.6029 44.6922 52.5176 45.0473 52.404 45.3741C52.1483 46.056 51.9353 46.7663 51.6228 47.4198C50.4439 49.8918 48.4411 51.1988 45.7281 51.4687C45.302 51.5113 44.8759 51.5113 44.4498 51.5397C44.1799 51.5682 43.8248 51.5255 43.7822 51.9233C43.7395 52.3637 44.1231 52.3495 44.4071 52.4348C44.4782 52.449 44.5492 52.4632 44.6202 52.4774C46.7508 52.8183 48.6967 52.3495 50.4723 51.1135C52.0915 49.9912 53.029 48.4285 53.4693 46.539C53.5687 46.127 53.5403 45.6866 53.5261 45.2746C53.5119 44.9053 53.3415 44.6069 52.9438 44.4791ZM51.8216 34.5628C51.8216 33.27 51.3671 32.375 50.387 31.7357C50.0177 31.4942 49.6342 31.3522 49.1797 31.4232C48.4979 31.5368 48.1002 31.9914 48.0718 32.6734C48.015 34.0656 48.6541 35.1311 49.7336 35.9267C50.2024 36.2676 50.7421 36.3103 51.2819 36.0545C51.8074 35.813 51.8074 35.3158 51.8216 34.8328C51.8358 34.7475 51.8216 34.6481 51.8216 34.5628ZM32.8309 37.3331C32.8167 38.427 33.1434 39.2652 33.7967 39.9614C34.2087 40.3876 34.7058 40.6291 35.3024 40.6291C35.8421 40.6291 36.3108 40.3165 36.4671 39.8761C36.9926 38.427 35.8705 36.2676 34.3791 35.8699C33.6405 35.671 32.9445 36.1256 32.8309 36.8927C32.8309 37.0774 32.8451 37.2763 32.8309 37.3331ZM34.4927 34.6055C34.7768 34.5913 35.1461 34.6339 35.4728 34.5344C35.6859 34.4776 35.8989 34.2503 36.0126 34.0372C36.1404 33.7815 36.0126 33.5116 35.7853 33.3553C35.5296 33.1848 35.2597 33.0143 34.9757 32.9575C33.9814 32.7444 33.0013 32.8865 32.078 33.2842C31.3394 33.5968 30.7713 34.1224 30.331 34.7902C30.0895 35.1595 29.9474 35.5573 30.0469 35.9977C30.1179 36.3103 30.2883 36.566 30.6434 36.6086C30.9559 36.6512 31.1122 36.4381 31.2116 36.1824C31.382 35.7136 31.7514 35.4152 32.1349 35.1453C32.8167 34.6481 33.5979 34.5486 34.4927 34.6055ZM49.2223 27.8857C47.4894 27.8999 46.0264 28.9654 45.5577 30.4429C45.4724 30.7271 45.4156 31.0254 45.7139 31.2101C46.0264 31.409 46.2395 31.1959 46.4525 30.9828C46.7082 30.7413 46.9497 30.4855 47.2053 30.244C48.0434 29.4627 49.0092 29.2638 50.0887 29.6474C50.4296 29.761 50.7563 29.8747 51.0972 29.9599C51.4949 30.0593 51.6938 29.8605 51.5944 29.4769C51.4949 29.0507 51.2819 28.6955 50.9126 28.4398C50.3444 28.042 49.7052 27.8999 49.2223 27.8857Z" fill="white"/>
<path d="M59.4065 139.948C59.2786 139.706 59.1366 139.465 59.023 139.209C57.7588 136.382 56.7361 133.455 55.8271 130.486C54.222 125.229 52.9862 119.888 52.0914 114.461C51.58 111.364 51.1113 108.238 50.742 105.127C50.4011 102.286 50.2023 99.4303 49.9608 96.5747C49.6341 92.6111 49.35 88.6475 48.9949 84.698C48.8387 83.0074 48.512 81.331 48.2989 79.6405C48.1995 78.8591 47.7734 78.4329 47.0348 78.2198C46.424 78.0351 45.8274 77.7936 45.2593 77.5237C43.6826 76.7991 42.4753 75.6626 41.5946 74.1709C40.6429 72.5514 40.0606 70.8182 40.0464 68.9145C40.0464 68.1331 40.0748 67.3518 40.089 66.5846C40.7566 66.13 41.41 65.6754 42.0776 65.2492C42.4469 65.0077 42.8588 64.823 43.3559 64.5673C43.4838 65.1213 43.5974 65.5617 43.6968 66.0163C44.0235 67.6927 44.8473 69.1134 46.0689 70.2925C46.9211 71.1165 47.9438 71.5711 49.1085 71.6848C50.6 71.8268 52.0772 71.699 53.526 71.2159C57.4037 69.8947 60.5428 67.6501 62.787 64.1837C63.554 62.9903 64.1506 61.7401 64.108 60.2769C64.108 60.2058 64.1506 60.149 64.1648 60.078C64.6335 60.0638 67.0198 60.7741 67.7016 61.1435C67.6732 61.3566 67.6448 61.5839 67.6022 61.8112C67.1903 63.7006 66.4517 65.4623 65.6136 67.1955C64.5341 69.4117 63.4404 71.6279 61.8353 73.5174C61.0399 74.4551 60.1877 75.3359 59.2786 76.1741C58.4548 76.927 57.4889 77.4953 56.3952 77.8078C55.9123 77.9499 55.6424 78.2624 55.5856 78.7739C55.543 79.2001 55.472 79.6263 55.472 80.0525C55.4151 82.7091 55.2873 85.3515 55.3583 88.0082C55.4293 91.2899 55.6424 94.5858 55.8413 97.8675C55.9691 99.9701 56.1395 102.073 56.3242 104.161C56.5231 106.377 56.7361 108.594 56.9634 110.796C57.2048 113.125 57.4463 115.455 57.7304 117.785C58.0713 120.698 58.4406 123.61 58.8099 126.522C59.1082 128.824 59.4207 131.125 59.719 133.412C59.932 134.933 60.2161 136.453 60.1451 138.001C60.1309 138.442 60.0598 138.896 59.9746 139.337C59.9178 139.564 59.7474 139.777 59.6337 139.99C59.5343 139.948 59.4633 139.948 59.4065 139.948Z" fill="white"/>
<path d="M44.3076 61.3569C47.4183 61.8115 50.3301 61.7405 53.0857 60.3482C55.7845 58.9844 57.8014 56.9244 59.5059 54.282C59.6338 54.5945 59.719 54.7792 59.7758 54.9497C60.2019 56.1004 60.6138 57.2654 61.0826 58.3877C61.4377 59.2543 61.878 60.1067 62.6876 60.746C62.574 60.9875 62.4888 61.229 62.3609 61.4563C60.2019 65.4058 57.0486 68.1618 52.7306 69.5399C51.438 69.9519 50.1313 70.0087 48.8103 69.8666C48.4126 69.824 47.9865 69.6109 47.674 69.3552C46.6797 68.5454 45.9979 67.5226 45.6712 66.2582C45.3161 64.8801 44.9184 63.5305 44.5349 62.1667C44.4639 61.9536 44.407 61.7405 44.3076 61.3569Z" fill="white"/>
<path d="M38.9246 67.2098C38.9246 68.1759 38.8962 69.0283 38.9246 69.8665C39.0524 72.9635 40.3166 75.5207 42.6745 77.5238C43.4699 78.1916 44.3789 78.6177 45.4016 78.8166C45.5579 78.8451 45.7141 78.9161 45.8704 78.9729C45.842 79.0724 45.842 79.1576 45.8135 79.2002C44.3221 80.9334 43.1858 82.9081 41.9785 84.826C41.6802 85.3091 41.3677 85.7921 41.041 86.2467C40.416 87.0991 39.8763 87.1417 39.095 86.4314C38.2428 85.6358 37.6888 84.6414 37.3337 83.5617C36.8792 82.1694 36.4531 80.7629 36.1122 79.3423C35.3736 76.231 35.3452 73.063 35.6293 69.8949C35.6861 69.3124 35.8991 68.8862 36.4673 68.6163C37.1065 68.3038 37.6888 67.906 38.3138 67.5508C38.4985 67.4087 38.7115 67.3235 38.9246 67.2098Z" fill="white"/>
<path d="M68.8947 61.4561C69.6901 61.5271 69.7185 61.5413 69.6475 62.209C69.4628 64.1127 69.3066 66.0306 69.0367 67.9201C68.7668 69.909 68.4828 71.8979 68.0566 73.8584C67.4885 76.4725 66.5652 78.987 65.2442 81.3311C65.017 81.7431 64.7329 82.1267 64.463 82.5103C63.9375 83.2774 63.1847 83.4337 62.3324 83.1922C61.9773 83.0927 61.608 82.9507 61.2955 82.7376C59.9177 81.7857 58.5542 80.8055 57.1906 79.8252C56.9207 79.6263 56.7076 79.328 56.4377 79.0438C56.6224 78.9444 56.7218 78.8734 56.8355 78.845C58.6678 78.4472 60.1024 77.3959 61.4234 76.1599C62.9006 74.7819 64.1505 73.2049 65.1022 71.4149C66.0113 69.7101 66.8777 67.9627 67.7157 66.2295C68.3549 64.9225 68.6532 63.5018 68.7952 62.0669C68.8094 61.8681 68.8521 61.6834 68.8947 61.4561Z" fill="white"/>
<path d="M65.6138 26.1528C66.0825 26.1244 66.3808 26.3517 66.5939 26.6216C67.02 27.1757 67.4745 27.7439 67.8012 28.3548C68.9659 30.5995 69.3495 33.0004 69.1648 35.5007C69.0938 36.552 68.7103 37.5181 68.1137 38.4131C67.3041 39.6207 66.1252 39.919 64.7616 39.7769C64.3496 39.7343 64.0798 39.4502 64.0798 38.9956C64.0514 37.4186 63.9945 35.8275 64.0656 34.2506C64.094 33.455 64.3354 32.6736 64.5059 31.8923C64.5485 31.6792 64.6905 31.4803 64.8042 31.2246C65.5002 31.9349 65.77 32.7162 65.7984 33.5971C65.8269 34.1795 65.8837 34.762 65.9405 35.4013C66.466 35.2308 66.5229 34.8614 66.5655 34.5347C66.7359 33.0572 66.5087 31.6934 65.2587 30.6989C65.2303 30.6705 65.2019 30.6279 65.1593 30.5568C65.2587 29.8465 65.9973 29.534 66.2672 28.8947C65.9831 28.5821 65.7132 28.7242 65.5286 28.9373C65.1451 29.4061 64.79 29.9033 64.4491 30.4148C64.2786 30.6847 64.165 30.9972 64.0229 31.324C63.6678 31.1251 63.7957 30.7984 63.6963 30.5568C63.3696 29.7329 63.5258 29.0936 64.2928 28.5537C64.861 28.1417 65.1309 27.4882 65.3581 26.8347C65.4291 26.5932 65.5428 26.3659 65.6138 26.1528Z" fill="white"/>
<path d="M28.2428 45.1897C26.3963 44.4651 25.1321 42.5046 25.2316 40.6862C25.2458 40.4447 25.1889 40.1463 25.5298 40.0469C25.8139 39.9617 26.0696 40.1179 26.2258 40.4873C26.5525 41.226 26.8508 41.9648 27.1633 42.6893C27.419 43.3002 27.703 43.8969 27.9587 44.4936C28.0581 44.6782 28.115 44.8771 28.2428 45.1897Z" fill="white"/>
<path d="M42.5039 44.053C43.1431 43.982 43.6687 43.8825 44.2084 43.8683C45.0039 43.8541 45.8135 43.8825 46.6089 43.9394C46.8788 43.9536 47.1487 44.1098 47.3759 44.2661C47.6174 44.4366 47.5748 44.7065 47.3049 44.8202C47.1345 44.8912 46.9498 44.948 46.7652 44.9622C46.268 45.0191 45.7709 45.0475 45.2879 45.0901C44.4357 45.1611 43.5977 45.2464 42.7454 45.3174C42.6034 45.3316 42.4613 45.36 42.3193 45.3742C41.3534 45.4168 40.9983 45.0475 41.1262 44.1098C41.396 42.0499 41.5239 39.9757 41.5239 37.8873C41.5239 36.0263 41.5949 34.151 41.6517 32.2899C41.6659 31.8779 41.6517 31.4518 42.0068 31.125C42.3903 31.2813 42.3903 31.5796 42.4045 31.8495C42.6318 35.0602 42.8449 38.2709 42.6886 41.4816C42.6602 42.1351 42.5608 42.8028 42.5039 43.4563C42.5039 43.6268 42.5039 43.7831 42.5039 44.053Z" fill="#0061AF"/>
<path d="M52.9437 44.4794C53.3414 44.6072 53.5118 44.9056 53.526 45.2749C53.5402 45.7011 53.5687 46.1415 53.4692 46.5393C53.0431 48.4288 52.0914 49.9915 50.4722 51.1139C48.6967 52.3498 46.7507 52.8186 44.6201 52.4777C44.5491 52.4635 44.4781 52.4635 44.4071 52.4351C44.123 52.3498 43.7395 52.364 43.7821 51.9236C43.8247 51.5401 44.1656 51.5685 44.4497 51.5401C44.8758 51.4974 45.3019 51.5116 45.728 51.469C48.441 51.1991 50.4438 49.8921 51.6227 47.4201C51.9352 46.7666 52.1483 46.0563 52.4039 45.3744C52.5176 45.0476 52.6028 44.6925 52.9437 44.4794Z" fill="#0061AF"/>
<path d="M51.8216 34.5632C51.8216 34.6626 51.8216 34.7478 51.8216 34.8473C51.7932 35.3161 51.7932 35.8133 51.2819 36.0691C50.7421 36.3248 50.2024 36.2822 49.7336 35.9412C48.6399 35.1314 48.0007 34.0801 48.0718 32.6879C48.1002 31.9918 48.5121 31.5514 49.1797 31.4377C49.6342 31.3667 50.0177 31.5229 50.387 31.7503C51.3671 32.3753 51.8216 33.2704 51.8216 34.5632Z" fill="#0061AF"/>
<path d="M32.8308 37.3332C32.8308 37.2622 32.8308 37.0775 32.8592 36.8928C32.9728 36.1256 33.6688 35.671 34.4074 35.8699C35.8846 36.2677 37.021 38.4271 36.4954 39.8762C36.3392 40.3166 35.8704 40.6291 35.3307 40.6291C34.7341 40.6291 34.2228 40.4018 33.825 39.9614C33.1433 39.2653 32.8166 38.4271 32.8308 37.3332Z" fill="#0061AF"/>
<path d="M34.4925 34.6057C33.5976 34.5488 32.8164 34.6483 32.1346 35.1455C31.7511 35.4154 31.3818 35.7138 31.2114 36.1826C31.1119 36.4383 30.9557 36.6514 30.6432 36.6088C30.2881 36.5662 30.1035 36.3247 30.0466 35.9979C29.9472 35.5575 30.1035 35.1597 30.3307 34.7904C30.771 34.1226 31.3392 33.6112 32.0778 33.2845C33.0153 32.8867 33.9811 32.7588 34.9754 32.9577C35.2595 33.0145 35.5294 33.185 35.7851 33.3555C36.0123 33.5118 36.1402 33.7817 36.0123 34.0374C35.8987 34.2505 35.6856 34.4636 35.4726 34.5346C35.1459 34.6341 34.7766 34.5915 34.4925 34.6057Z" fill="#0061AF"/>
<path d="M49.2223 27.8859C49.7195 27.9001 50.3445 28.0563 50.9126 28.4399C51.2819 28.6956 51.495 29.0508 51.5944 29.477C51.6938 29.8606 51.495 30.0595 51.0973 29.96C50.7564 29.8748 50.4155 29.7611 50.0888 29.6475C49.0093 29.2781 48.0434 29.4628 47.2053 30.2442C46.9497 30.4857 46.694 30.7414 46.4525 30.9829C46.2395 31.1818 46.0264 31.4091 45.7139 31.2102C45.4298 31.0255 45.4725 30.7272 45.5577 30.4431C46.0264 28.9656 47.4894 27.8859 49.2223 27.8859Z" fill="#0061AF"/>
</svg>
